<?xml version="1.0" encoding="UTF-8"?>
<svg width="100" height="100" viewBox="0 0 100 100" xmlns="http://www.w3.org/2000/svg">
  <defs>
    <linearGradient id="metalGradient" x1="0%" y1="0%" x2="100%" y2="0%">
      <stop offset="0%" style="stop-color:#78909C;stop-opacity:1" />
      <stop offset="100%" style="stop-color:#546E7A;stop-opacity:1" />
    </linearGradient>
  </defs>
  <!-- Основное здание -->
  <rect x="10" y="20" width="50" height="80" fill="url(#metalGradient)"/>
  <!-- Боковая секция -->
  <rect x="60" y="40" width="30" height="60" fill="url(#metalGradient)"/>
  <!-- Окна на основном здании -->
  <g fill="#B2EBF2" opacity="0.8">
    <rect x="15" y="25" width="40" height="5"/>
    <rect x="15" y="35" width="40" height="5"/>
    <rect x="15" y="45" width="40" height="5"/>
    <rect x="15" y="55" width="40" height="5"/>
    <rect x="15" y="65" width="40" height="5"/>
    <rect x="15" y="75" width="40" height="5"/>
    <rect x="15" y="85" width="40" height="5"/>
  </g>
  <!-- Окна на боковой секции -->
  <g fill="#B2EBF2" opacity="0.8">
    <rect x="65" y="45" width="20" height="5"/>
    <rect x="65" y="55" width="20" height="5"/>
    <rect x="65" y="65" width="20" height="5"/>
    <rect x="65" y="75" width="20" height="5"/>
    <rect x="65" y="85" width="20" height="5"/>
  </g>
  <!-- Антенна -->
  <line x1="35" y1="20" x2="35" y2="0" stroke="#455A64" stroke-width="2"/>
</svg> 