<?xml version="1.0" encoding="UTF-8"?>
<svg width="100" height="100" viewBox="0 0 100 100" xmlns="http://www.w3.org/2000/svg">
  <defs>
    <linearGradient id="schoolGradient" x1="0%" y1="0%" x2="100%" y2="100%">
      <stop offset="0%" style="stop-color:#FFE0B2;stop-opacity:1" />
      <stop offset="100%" style="stop-color:#FFCC80;stop-opacity:1" />
    </linearGradient>
  </defs>
  <!-- Основное здание -->
  <rect x="10" y="30" width="80" height="70" fill="url(#schoolGradient)"/>
  <!-- Крыша -->
  <path d="M0 30 L50 10 L100 30 Z" fill="#F57C00"/>
  <!-- Часы -->
  <circle cx="50" cy="20" r="8" fill="#FFF"/>
  <line x1="50" y1="20" x2="50" y2="15" stroke="#000" stroke-width="2"/>
  <line x1="50" y1="20" x2="54" y2="20" stroke="#000" stroke-width="2"/>
  <!-- Окна -->
  <g fill="#FFF" opacity="0.9">
    <rect x="20" y="40" width="15" height="20"/>
    <rect x="42.5" y="40" width="15" height="20"/>
    <rect x="65" y="40" width="15" height="20"/>
    <rect x="20" y="70" width="15" height="20"/>
    <rect x="42.5" y="70" width="15" height="20"/>
    <rect x="65" y="70" width="15" height="20"/>
  </g>
  <!-- Вход -->
  <rect x="40" y="80" width="20" height="20" fill="#795548"/>
  <!-- Ступеньки -->
  <g fill="#8D6E63">
    <rect x="35" y="95" width="30" height="5"/>
    <rect x="32" y="97" width="36" height="3"/>
  </g>
</svg> 