<?xml version="1.0" encoding="UTF-8"?>
<svg width="100" height="100" viewBox="0 0 100 100" xmlns="http://www.w3.org/2000/svg">
  <defs>
    <linearGradient id="sportGradient" x1="0%" y1="0%" x2="100%" y2="100%">
      <stop offset="0%" style="stop-color:#4DB6AC;stop-opacity:1" />
      <stop offset="100%" style="stop-color:#26A69A;stop-opacity:1" />
    </linearGradient>
  </defs>
  <!-- Основное здание (купол) -->
  <path d="M10 50 Q50 10 90 50 L90 80 L10 80 Z" fill="url(#sportGradient)"/>
  
  <!-- Боковые стены -->
  <rect x="10" y="50" width="10" height="30" fill="#00897B"/>
  <rect x="80" y="50" width="10" height="30" fill="#00897B"/>
  
  <!-- Окна -->
  <g fill="#E0F2F1" opacity="0.8">
    <rect x="25" y="40" width="10" height="20" rx="5"/>
    <rect x="45" y="30" width="10" height="20" rx="5"/>
    <rect x="65" y="40" width="10" height="20" rx="5"/>
  </g>
  
  <!-- Вход -->
  <rect x="40" y="60" width="20" height="20" fill="#004D40"/>
  
  <!-- Ступеньки -->
  <g fill="#00796B">
    <rect x="35" y="80" width="30" height="5"/>
    <rect x="32" y="85" width="36" height="5"/>
    <rect x="30" y="90" width="40" height="5"/>
  </g>
  
  <!-- Спортивный символ -->
  <circle cx="50" cy="40" r="8" fill="none" stroke="#E0F2F1" stroke-width="2"/>
  <path d="M46 40 L54 40 M50 36 L50 44" stroke="#E0F2F1" stroke-width="2"/>
</svg> 