<?xml version="1.0" encoding="UTF-8"?>
<svg width="100" height="100" viewBox="0 0 100 100" xmlns="http://www.w3.org/2000/svg">
  <defs>
    <linearGradient id="glassGradient" x1="0%" y1="0%" x2="100%" y2="100%">
      <stop offset="0%" style="stop-color:#90CAF9;stop-opacity:1" />
      <stop offset="100%" style="stop-color:#42A5F5;stop-opacity:1" />
    </linearGradient>
  </defs>
  <!-- Основа здания -->
  <rect x="20" y="10" width="60" height="90" fill="url(#glassGradient)"/>
  <!-- Окна -->
  <g fill="#E3F2FD" opacity="0.8">
    <rect x="25" y="15" width="10" height="10"/>
    <rect x="45" y="15" width="10" height="10"/>
    <rect x="65" y="15" width="10" height="10"/>
    <rect x="25" y="35" width="10" height="10"/>
    <rect x="45" y="35" width="10" height="10"/>
    <rect x="65" y="35" width="10" height="10"/>
    <rect x="25" y="55" width="10" height="10"/>
    <rect x="45" y="55" width="10" height="10"/>
    <rect x="65" y="55" width="10" height="10"/>
    <rect x="25" y="75" width="10" height="10"/>
    <rect x="45" y="75" width="10" height="10"/>
    <rect x="65" y="75" width="10" height="10"/>
  </g>
  <!-- Крыша -->
  <path d="M15 10 L50 0 L85 10 Z" fill="#1976D2"/>
</svg> 