<?xml version="1.0" encoding="UTF-8"?>
<svg width="100" height="100" viewBox="0 0 100 100" xmlns="http://www.w3.org/2000/svg">
  <defs>
    <linearGradient id="buildingGradient" x1="0%" y1="0%" x2="100%" y2="0%">
      <stop offset="0%" style="stop-color:#81C784;stop-opacity:1" />
      <stop offset="100%" style="stop-color:#66BB6A;stop-opacity:1" />
    </linearGradient>
  </defs>
  <!-- Основное здание -->
  <rect x="20" y="10" width="60" height="90" fill="url(#buildingGradient)"/>
  <!-- Балконы -->
  <g fill="#A5D6A7">
    <rect x="10" y="20" width="15" height="10"/>
    <rect x="75" y="20" width="15" height="10"/>
    <rect x="10" y="40" width="15" height="10"/>
    <rect x="75" y="40" width="15" height="10"/>
    <rect x="10" y="60" width="15" height="10"/>
    <rect x="75" y="60" width="15" height="10"/>
    <rect x="10" y="80" width="15" height="10"/>
    <rect x="75" y="80" width="15" height="10"/>
  </g>
  <!-- Окна -->
  <g fill="#E8F5E9" opacity="0.9">
    <rect x="30" y="20" width="10" height="15"/>
    <rect x="60" y="20" width="10" height="15"/>
    <rect x="30" y="40" width="10" height="15"/>
    <rect x="60" y="40" width="10" height="15"/>
    <rect x="30" y="60" width="10" height="15"/>
    <rect x="60" y="60" width="10" height="15"/>
    <rect x="30" y="80" width="10" height="15"/>
    <rect x="60" y="80" width="10" height="15"/>
  </g>
  <!-- Вход -->
  <rect x="45" y="85" width="10" height="15" fill="#2E7D32"/>
</svg> 