<?xml version="1.0" encoding="UTF-8"?>
<svg width="100" height="100" viewBox="0 0 100 100" xmlns="http://www.w3.org/2000/svg">
  <defs>
    <linearGradient id="treeGradient" x1="0%" y1="100%" x2="100%" y2="0%">
      <stop offset="0%" style="stop-color:#66BB6A;stop-opacity:1" />
      <stop offset="100%" style="stop-color:#81C784;stop-opacity:1" />
    </linearGradient>
  </defs>
  <!-- Большое дерево -->
  <path d="M50,10 L70,40 L60,40 L75,60 L65,60 L80,85 L20,85 L35,60 L25,60 L40,40 L30,40 Z" 
        fill="url(#treeGradient)">
    <animate attributeName="fill-opacity"
             dur="2s"
             values="1;0.8;1"
             repeatCount="indefinite"/>
  </path>
  <rect x="45" y="85" width="10" height="15" fill="#795548"/>
  
  <!-- Маленькое дерево слева -->
  <path d="M20,30 L30,50 L25,50 L35,65 L5,65 L15,50 L10,50 Z" 
        fill="url(#treeGradient)">
    <animate attributeName="fill-opacity"
             dur="2.5s"
             values="1;0.8;1"
             repeatCount="indefinite"/>
  </path>
  <rect x="17" y="65" width="6" height="10" fill="#795548"/>
  
  <!-- Маленькое дерево справа -->
  <path d="M70,35 L80,55 L75,55 L85,70 L55,70 L65,55 L60,55 Z" 
        fill="url(#treeGradient)">
    <animate attributeName="fill-opacity"
             dur="3s"
             values="1;0.8;1"
             repeatCount="indefinite"/>
  </path>
  <rect x="67" y="70" width="6" height="10" fill="#795548"/>
</svg> 